<svg xmlns="http://www.w3.org/2000/svg" viewBox="0 0 64 64" fill="none">
  <!-- Heel base -->
  <path d="M10 50 Q10 56 16 56 L48 56 Q54 56 54 52 L54 48 Q54 44 48 44 L28 44 Q20 44 18 38 L14 22 Q12 16 8 18" stroke="#D87C9B" stroke-width="2.5" stroke-linecap="round" stroke-linejoin="round" fill="#F4C7D9"/>
  <!-- Shoe sole -->
  <path d="M10 50 Q10 56 16 56 L48 56 Q54 56 54 52" stroke="#C06080" stroke-width="3" stroke-linecap="round" fill="none"/>
  <!-- Heel column -->
  <path d="M8 18 Q6 30 10 50" stroke="#D87C9B" stroke-width="3" stroke-linecap="round"/>
  <!-- Shoe upper -->
  <path d="M18 38 Q22 32 28 30 L46 30 Q52 30 54 38 L54 44 L28 44 Q20 44 18 38Z" fill="#D87C9B" stroke="#C06080" stroke-width="2"/>
  <!-- Ankle strap -->
  <path d="M20 38 Q20 34 24 34 L44 34" stroke="#FFF8F4" stroke-width="1.5" stroke-linecap="round"/>
  <!-- Bow decoration -->
  <path d="M36 34 Q32 30 28 34 Q32 38 36 34Z" fill="#D9A441" stroke="#C8911E" stroke-width="1"/>
  <circle cx="32" cy="34" r="1.5" fill="#C8911E"/>
  <!-- Sparkle on heel -->
  <path d="M6 12 L7 10 L8 12 L10 13 L8 14 L7 16 L6 14 L4 13Z" fill="#D9A441" opacity="0.8"/>
</svg>
